<svg width="284" height="294" fill="none" xmlns="http://www.w3.org/2000/svg"><path d="M107.802 280.258c-15.147 5.367-30.44 7.846-46.754 4.747-18.183-3.456-33.954-19.016-42.865-34.534-3.31-5.764-5.947-12.204-5.602-18.841.801-15.332 15.285-17.045 27.58-14.565 6.931 1.394 13.295 4.569 19.587 7.713 10.445 5.223 22.698 7.792 32.063 15.032 3.142 2.436 5.502 5.364 9.153 7.136 5.68 2.76 12.164 4.063 17.998 6.574 4.981 2.155 10.549 5.7 10.556 11.125.001 5.563-5.804 9.109-10.904 11.324a159.01 159.01 0 01-10.812 4.289z" fill="url(#paint0_linear)"/><path d="M52.05 82.496c24.813-36.567 76.122-51.25 117.711-37.501 20.055 6.633 36.862 20.444 52.364 34.782 13.664 12.637 26.92 26.267 36.252 42.513 6.371 11.089 10.932 24.381 14.152 36.791 4.815 18.58.442 42.521-23.577 40.767-5.635-.411-10.51-2.437-15.781-4.21-4.263-1.437-8.441-.575-12.867-1.277-11.142-1.764-21.875-5.866-32.024-10.671-20.684-9.8-39.583-23.115-60.855-31.703a147.348 147.348 0 00-54.844-10.691c-7.93-.013-16.268.542-23.36-3.004-17.484-8.747-9.622-32.334-3.092-45.602a83.036 83.036 0 015.921-10.194z" fill="url(#paint1_linear)"/><path d="M246.597 88.015c4.085 3.7 20.135 13.8 20.444 1.947.073-2.952-1.266-5.82-3.089-7.982-2.085-2.482-4.45-3.784-6.078-6.676a68.564 68.564 0 00-6.775-9.802c-5.14-6.305-11.141-12.13-18.423-14.725-5.107-1.819-13.754-1.361-16.18 5.184-3.534 9.529 11.578 11.274 16.187 14.747 4.374 3.287 6.851 8.934 10.316 13.423a29.514 29.514 0 003.598 3.884z" fill="url(#paint2_linear)"/><path d="M171.059 76.425c8.653 5.094 15.143 12.72 23.032 18.861 13.134 10.223 31.137 12.314 46.199 19.424 15.358 7.253 26.955 18.526 32.198 34.773 6.774 20.972 7.418 45.912 1.663 67.472-6.338 23.732-21.222 39.496-42.983 50.009-21.749 10.507-45.842 15.41-69.872 16.422-2.319.099-4.634.153-6.958.168-52.203.303-121.688-18.072-139.46-74.15a89.757 89.757 0 01-.476-1.545 81.573 81.573 0 01-3.208-19.196c-1.118-23.057 2.918-48.506 11.001-70.12 5.437-14.552 17.145-26.856 29.481-35.623 17.333-12.317 38.481-15.46 59.53-16.938 15.587-1.093 33.117-1.493 47.857 4.47a89.544 89.544 0 0111.996 5.973z" fill="url(#paint3_linear)"/><path d="M73.39 111.76s53.076 70.867 66.353 76.727c13.281 5.863 29.929 4.543 31.385 11.341 1.456 6.802-27.873-4.703-23.194 5.789 4.678 10.496 22.912 22.476 22.998 33.042.089 10.57-29.015-22.687-29.015-22.687s27.422 30.427 18.342 31.146c-9.084.72-32.571-29.028-32.571-29.028s26.273 39.024 17.563 35.459c-8.705-3.564-89.446-96.932-101.898-106.812-12.45-9.876 30.037-34.977 30.037-34.977z" fill="#E27B5A"/><path d="M227.787 128.962s-60.536 64.592-74.38 68.957c-13.844 4.362-30.244 1.22-32.441 7.815-2.193 6.597 28.221-1.606 22.416 8.311-5.801 9.913-25.239 19.812-26.488 30.308-1.244 10.492 31.334-19.356 31.334-19.356s-30.6 27.222-21.654 28.936c8.951 1.717 35.564-25.264 35.564-25.264s-30.403 35.897-21.357 33.312c9.047-2.585 99.557-86.496 113.016-94.945 13.462-8.448-26.01-38.074-26.01-38.074z" fill="#FFCEB0"/><path d="M176.25 173.812s18.619 35.257 35.735 39.008c17.114 3.751 54.086-29.716 62.153-46.293 8.07-16.574-31.261-66.73-39.678-73.944-12.159-1.485-66.842 49.802-58.21 81.229z" fill="#FB4C47"/><path d="M60.721 77.553s61.238 60.353 58.336 76.024c-2.898 15.674-26.281 34.449-45.14 40.597-18.858 6.146-60.087-18.611-60.087-36.664-3.007-30.66 12.625-62.522 46.891-79.957z" fill="#128E5A"/><defs><linearGradient id="paint0_linear" x1="11.236" y1="233.746" x2="26.951" y2="288.313" gradientUnits="userSpaceOnUse"><stop stop-color="#FFD0D0"/><stop offset="1" stop-color="#FFF8F8"/></linearGradient><linearGradient id="paint1_linear" x1="304.772" y1="87.822" x2="128.881" y2="47.207" gradientUnits="userSpaceOnUse"><stop stop-color="#FFF8F8"/><stop offset="1" stop-color="#FFD0D0"/></linearGradient><linearGradient id="paint2_linear" x1="267.458" y1="89.755" x2="207.112" y2="63.98" gradientUnits="userSpaceOnUse"><stop stop-color="#FFD0D0"/><stop offset="1" stop-color="#FFF7F7"/></linearGradient><linearGradient id="paint3_linear" x1="253.838" y1="259.726" x2="11.244" y2="119.24" gradientUnits="userSpaceOnUse"><stop stop-color="#FFCFCF"/><stop offset="1" stop-color="#FFF8F8"/></linearGradient></defs></svg>