<svg width="49" height="35" fill="none" xmlns="http://www.w3.org/2000/svg"><rect width="49" height="35" rx="2.649" fill="#fff"/><mask id="a" maskUnits="userSpaceOnUse" x="0" y="0" width="49" height="35"><rect width="49" height="35" rx="2.649" fill="#fff"/></mask><g mask="url(#a)"><path fill="#F1361D" d="M0 0h49v35H0z"/><path fill-rule="evenodd" clip-rule="evenodd" d="M17.634 10.425l1.694.289L20.6 11.87l.29-1.694 1.157-1.271-1.695-.29-1.27-1.157-.29 1.695-1.157 1.27zm4.535 5.927l1.47-.893 1.718.04-.894-1.47.04-1.718-1.469.894-1.718-.04.893 1.469-.04 1.718zm-1.989 9.596l-1.436.944-.02-1.719-.945-1.436 1.72-.02 1.436-.945.02 1.719.945 1.436-1.72.02zm1.247-4.445l1.708-.19 1.541.763-.19-1.709.763-1.54-1.708.189L22 18.253l.189 1.71-.762 1.54zm-9.761-2.107L7.552 22.33l1.518-4.82-4.061-3.007 5.052-.045 1.605-4.792 1.605 4.792 5.052.045-4.06 3.007 1.518 4.82-4.115-2.933z" fill="#FFDC42"/></g></svg>