<svg width="186" height="323" fill="none" xmlns="http://www.w3.org/2000/svg"><g filter="url(#filter0_d)"><rect x="50" y="45" width="85.062" height="223" rx="5" fill="#fff"/></g><path stroke="#A2A5B2" stroke-linecap="round" d="M97.777 174.242h-8.195m8.195-55.175h-8.195"/><path d="M79.886 81.784h27.588M93.68 67.99v27.587m-13.794 50.577h27.588" stroke="#687089" stroke-width="1.5" stroke-linecap="round" stroke-linejoin="round"/><path d="M89.914 198.182c.768-1.934 3.506-1.934 4.273 0l7.565 19.057a2.3 2.3 0 01-2.137 3.148H84.486a2.3 2.3 0 01-2.136-3.148l7.564-19.057z" fill="#F44A45"/><path d="M94.187 244.891c-.768 1.935-3.505 1.935-4.273 0l-7.565-19.057a2.299 2.299 0 012.137-3.147h15.129a2.3 2.3 0 012.137 3.147l-7.565 19.057z" fill="#A2A5B2"/><defs><filter id="filter0_d" x="0" y="0" width="185.062" height="323" filterUnits="userSpaceOnUse" color-interpolation-filters="sRGB"><feFlood flood-opacity="0" result="BackgroundImageFix"/><feColorMatrix in="SourceAlpha" values="0 0 0 0 0 0 0 0 0 0 0 0 0 0 0 0 0 0 127 0"/><feOffset dy="5"/><feGaussianBlur stdDeviation="25"/><feColorMatrix values="0 0 0 0 0.408333 0 0 0 0 0.130573 0 0 0 0 0.11059 0 0 0 0.1 0"/><feBlend in2="BackgroundImageFix" result="effect1_dropShadow"/><feBlend in="SourceGraphic" in2="effect1_dropShadow" result="shape"/></filter></defs></svg>