<svg width="254" height="259" fill="none" xmlns="http://www.w3.org/2000/svg"><path d="M245.688 123.116c-4.078-.119-7.592 3.029-8.59 7.357-6.312.493-13.524.66-21.441.158-4.403-.287-8.59-.749-12.505-1.322a79.47 79.47 0 00-.737-13.245 38.668 38.668 0 017.515-4.542 39.224 39.224 0 0113.926-3.531c1.855 4.247 6.117 6.718 10.195 5.642 4.598-1.21 7.234-6.447 5.867-11.698-1.356-5.252-6.171-8.536-10.769-7.325-4.187 1.108-6.746 5.555-6.139 10.313-3.308 1.897-8.232 3.952-14.327 4.104a29.275 29.275 0 01-7.776-.852 76.96 76.96 0 00-5.781-15.899 81.862 81.862 0 0124.153-15.294c2.907 3.428 7.538 4.567 11.117 2.48 4.11-2.392 5.26-8.154 2.581-12.856-2.679-4.7-8.199-6.566-12.31-4.167-3.568 2.08-4.913 6.702-3.438 10.958a83.61 83.61 0 01-14.185 8.98 82.777 82.777 0 01-10.846 4.511 77.331 77.331 0 00-9.479-12.799c1.378-5.036 3.698-10.917 7.657-16.815a56.54 56.54 0 0111.344-12.368c3.861 2.415 8.72 2.04 11.486-1.14 3.145-3.602 2.429-9.427-1.616-13.012-4.024-3.595-9.837-3.588-12.971.015-2.766 3.18-2.549 8.081.325 11.658a55.375 55.375 0 01-10.726 12.927 54.597 54.597 0 01-15.379 9.627 77.028 77.028 0 00-15.737-9.42 34.763 34.763 0 013.319-6.853 36.021 36.021 0 013.601-4.75c4.284 1.761 9.088.494 11.246-3.195 2.43-4.12.651-9.716-3.969-12.488-4.62-2.773-10.325-1.682-12.754 2.446-2.126 3.627-1.009 8.391 2.429 11.372a55.148 55.148 0 01-2.625 5.92 57.735 57.735 0 01-3.817 6.456 50.025 50.025 0 00-1.714-.66 75.642 75.642 0 00-21.3-4.679 67.459 67.459 0 01-3.037-11.077 67.332 67.332 0 01-.531-20.882c4.381-.848 7.656-4.322 7.656-8.485 0-4.797-4.348-8.686-9.717-8.686-5.379 0-9.739 3.889-9.739 8.686 0 4.235 3.394 7.756 7.884 8.526a61.172 61.172 0 01.12 21.438 61.33 61.33 0 01-2.809 10.417 75.703 75.703 0 00-20.498 4.043 30.62 30.62 0 01-2.44-4.763 33.853 33.853 0 01-2.3-9.653c4.198-2.208 6.356-6.84 4.881-10.937-1.627-4.506-7.039-6.65-12.093-4.788-5.043 1.863-7.82 7.025-6.182 11.532 1.41 3.888 5.629 6.01 10 5.324a54.035 54.035 0 013.46 9.186c.52 1.84.9 3.639 1.192 5.399a76.573 76.573 0 00-16.485 9.11 73.096 73.096 0 01-8.101-6.872 73.585 73.585 0 01-13.08-17.399c3.015-3.37 3.547-8.196 1.02-11.52-2.896-3.805-8.699-4.207-12.96-.898-4.252 3.309-5.358 9.074-2.474 12.878 2.57 3.36 7.386 4.06 11.42 1.894A57.195 57.195 0 0169.689 58.84a57.632 57.632 0 013.958 10.623 86.851 86.851 0 00-2.429 2.332 78.9 78.9 0 00-10.542 13.268 56.892 56.892 0 01-5.542-1.922 57.76 57.76 0 01-14.424-8.5c1.475-4.338.032-9.017-3.634-11.046-4.153-2.307-9.62-.317-12.2 4.444-2.593 4.76-1.313 10.488 2.863 12.794 3.654 2.027 8.318.732 11.149-2.845a58.907 58.907 0 0114.869 7.704 60.48 60.48 0 014.468 3.543 77.886 77.886 0 00-8.698 25.573c-3.698.319-7.69.472-11.973.339a102.34 102.34 0 01-16.464-1.857c-.108-4.786-3.275-8.792-7.57-9.248-4.728-.502-9.012 3.469-9.576 8.868-.554 5.399 2.82 10.181 7.537 10.681 4.208.446 8.047-2.653 9.251-7.145a109.34 109.34 0 0128.112 4.27 75.78 75.78 0 00-.25 6.306c0 5.048.467 9.985 1.378 14.771a63.684 63.684 0 01-16.93 8.025 63.492 63.492 0 01-16.496 2.703c-1.627-4.256-5.661-6.911-9.75-6.114-4.653.909-7.614 5.966-6.594 11.296 1.02 5.331 5.629 8.914 10.281 8.005 4.035-.787 6.779-4.674 6.79-9.155a99.237 99.237 0 0116.311-3.878 98.626 98.626 0 0118.947-.984 77.229 77.229 0 008.937 18.489 50.082 50.082 0 01-5.954 4.109 50.388 50.388 0 01-11.843 5.053c-2.387-3.856-6.855-5.666-10.716-4.091-4.392 1.802-6.334 7.34-4.316 12.369 1.269 3.155 3.796 5.371 6.594 6.128 1.648.454 3.394.399 5.032-.27.477-.2.944-.447 1.367-.742 3.21-2.15 4.576-6.608 3.22-10.861a73.051 73.051 0 0111.736-4.888 72.867 72.867 0 018.242-2.073 76.336 76.336 0 007.755 8.665c.26.256.531.511.791.749a64.524 64.524 0 01-9.012 14.671 64.18 64.18 0 01-12.234 11.51c-3.677-2.64-8.503-2.583-11.464.373-3.383 3.371-3.058 9.237.727 13.102 3.763 3.856 9.577 4.256 12.95.884 2.939-2.926 3.08-7.737.585-11.475a84.442 84.442 0 0111.453-12.321 85.134 85.134 0 0114.717-10.384 77.113 77.113 0 0019.305 10.089 57.425 57.425 0 01-1.507 8.471 59.954 59.954 0 01-6.432 15.573c-4.457-.902-8.86 1.155-10.368 5.092-1.703 4.471.976 9.683 5.987 11.643 5 1.96 10.444-.08 12.168-4.559 1.486-3.889-.336-8.335-4.143-10.711a84.412 84.412 0 015.466-15.987 82.078 82.078 0 014.154-7.864 75.534 75.534 0 0016.659 2.598 112.338 112.338 0 012.06 15.181c.554 8.264.109 15.58-.672 21.62-4.36.854-7.624 4.328-7.624 8.481 0 4.797 4.349 8.685 9.739 8.685 5.369 0 9.718-3.888 9.718-8.685 0-4.137-3.243-7.604-7.582-8.473a129.422 129.422 0 01-.704-21.628c.282-5.5.9-10.575 1.681-15.166a75.312 75.312 0 0017.396-2.717c.477.828.943 1.689 1.399 2.575a59.67 59.67 0 015.531 15.698c-3.872 2.272-5.846 6.687-4.447 10.624 1.584 4.518 6.985 6.702 12.05 4.884 5.054-1.824 7.873-6.965 6.279-11.483-1.41-4.008-5.824-6.177-10.336-5.347a42.093 42.093 0 01-5.314-15.971 35.452 35.452 0 01-.228-2.534 76.176 76.176 0 0017.397-8.742 98.613 98.613 0 0123.285 27.78c-2.972 3.363-3.482 8.153-.976 11.46 2.906 3.802 8.698 4.2 12.96.892 4.251-3.306 5.358-9.068 2.473-12.877-2.506-3.284-7.18-4.033-11.149-2.032a118.112 118.112 0 01-13.579-16.72c-2.95-4.4-5.39-8.67-7.396-12.68a80.327 80.327 0 006.192-5.618 78.235 78.235 0 008.753-10.559 89.744 89.744 0 0116.224 6.32 89.021 89.021 0 0114.208 8.941c-1.443 4.257-.076 8.862 3.503 10.918 4.121 2.383 9.62.486 12.288-4.223 2.668-4.718 1.475-10.464-2.646-12.848-3.601-2.078-8.275-.89-11.16 2.6a66.928 66.928 0 01-14.761-7.914 67.546 67.546 0 01-12.787-11.827 78.184 78.184 0 005.173-12.233c2.3.08 4.74.288 7.256.67a62.97 62.97 0 0116.073 4.693c-.358 4.544 2.18 8.703 6.204 9.747 4.598 1.196 9.413-2.096 10.758-7.355 1.334-5.259-1.301-10.487-5.91-11.683-4.035-1.053-8.254 1.371-10.13 5.554a57.847 57.847 0 01-16.279-3.769 58.314 58.314 0 01-6.486-3.029 77.353 77.353 0 002.039-12.161c4.002-.326 8.254-.534 12.733-.542 7.895-.023 15.075.55 21.376 1.395.759 4.375 4.089 7.706 8.156 7.835 4.75.134 8.731-4.153 8.872-9.58.151-5.426-3.569-9.938-8.308-10.074z" fill="#FFD0D0"/></svg>