<svg width="49" height="35" fill="none" xmlns="http://www.w3.org/2000/svg"><rect x=".337" y=".337" width="48.327" height="34.327" rx="2.356" fill="#fff" stroke="#F5F5F5" stroke-width=".673"/><mask id="a" maskUnits="userSpaceOnUse" x="0" y="0" width="49" height="35"><rect x=".337" y=".337" width="48.327" height="34.327" rx="2.356" fill="#fff" stroke="#fff" stroke-width=".673"/></mask><g mask="url(#a)"><path fill-rule="evenodd" clip-rule="evenodd" d="M0 11.667h49V0H0v11.667z" fill="#38BB56"/><path fill-rule="evenodd" clip-rule="evenodd" d="M0 35h49V23.334H0V35z" fill="#DE1B27"/><path fill-rule="evenodd" clip-rule="evenodd" d="M2.78 9.333c-.247 0-.448.2-.448.449v1.436c0 .247.201.448.449.448h1.436c.248 0 .448-.2.448-.448V9.782c0-.248-.2-.449-.448-.449H2.78zm4.668 0c-.248 0-.449.2-.449.449v1.436c0 .247.2.448.449.448h1.436c.247 0 .448-.2.448-.448V9.782c0-.248-.2-.449-.448-.449H7.448zm4.218.449c0-.248.2-.449.449-.449h1.435c.248 0 .45.2.45.449v1.436a.45.45 0 01-.45.448h-1.435a.449.449 0 01-.45-.448V9.782zm5.115-.449c-.247 0-.448.2-.448.449v1.436c0 .247.2.448.448.448h1.436c.248 0 .449-.2.449-.448V9.782c0-.248-.2-.449-.449-.449h-1.436zM21 9.782c0-.248.2-.449.448-.449h1.436c.248 0 .449.2.449.449v1.436a.449.449 0 01-.449.448h-1.436a.449.449 0 01-.448-.448V9.782zm5.115-.449c-.248 0-.449.2-.449.449v1.436c0 .247.201.448.45.448h1.435c.248 0 .449-.2.449-.448V9.782a.449.449 0 00-.449-.449h-1.436zm4.218.449c0-.248.201-.449.449-.449h1.436c.248 0 .448.2.448.449v1.436c0 .247-.2.448-.448.448h-1.436a.449.449 0 01-.449-.448V9.782zm5.116-.449c-.248 0-.449.2-.449.449v1.436c0 .247.2.448.449.448h1.436c.248 0 .448-.2.448-.448V9.782c0-.248-.2-.449-.448-.449h-1.436zm4.215.449c0-.248.201-.449.449-.449h1.436c.248 0 .449.2.449.449v1.436a.449.449 0 01-.45.448h-1.435a.449.449 0 01-.449-.448V9.782zm5.116-.449c-.248 0-.449.2-.449.449v1.436c0 .247.201.448.449.448h1.436c.248 0 .448-.2.448-.448V9.782c0-.248-.2-.449-.448-.449H44.78zM2.332 23.782a.45.45 0 01.449-.45h1.436c.248 0 .448.202.448.45v1.436c0 .247-.2.448-.448.448H2.78a.449.449 0 01-.449-.448v-1.436zm5.116-.45a.45.45 0 00-.449.45v1.436c0 .247.2.448.449.448h1.436c.247 0 .448-.2.448-.448v-1.436c0-.248-.2-.45-.448-.45H7.448zm4.218.45c0-.248.2-.45.449-.45h1.435a.45.45 0 01.45.45v1.436a.45.45 0 01-.45.448h-1.435a.449.449 0 01-.45-.448v-1.436zm5.115-.45a.45.45 0 00-.448.45v1.436c0 .247.2.448.448.448h1.436c.248 0 .449-.2.449-.448v-1.436a.45.45 0 00-.449-.45h-1.436zm4.219.45c0-.248.2-.45.448-.45h1.436a.45.45 0 01.449.45v1.436a.449.449 0 01-.449.448h-1.436a.449.449 0 01-.448-.448v-1.436zm5.115-.45a.45.45 0 00-.449.45v1.436c0 .247.201.448.45.448h1.435c.248 0 .449-.2.449-.448v-1.436a.45.45 0 00-.449-.45h-1.436zm4.218.45a.45.45 0 01.449-.45h1.436c.248 0 .448.202.448.45v1.436c0 .247-.2.448-.448.448h-1.436a.449.449 0 01-.449-.448v-1.436zm5.116-.45a.45.45 0 00-.449.45v1.436c0 .247.2.448.449.448h1.436c.248 0 .448-.2.448-.448v-1.436c0-.248-.2-.45-.448-.45h-1.436zm4.215.45a.45.45 0 01.449-.45h1.436a.45.45 0 01.449.45v1.436a.449.449 0 01-.45.448h-1.435a.449.449 0 01-.449-.448v-1.436zm5.116-.45a.45.45 0 00-.449.45v1.436c0 .247.201.448.449.448h1.436c.248 0 .448-.2.448-.448v-1.436c0-.248-.2-.45-.448-.45H44.78z" fill="#fff" fill-opacity=".5"/><mask id="b" fill="#fff"><path fill-rule="evenodd" clip-rule="evenodd" d="M22.143 14.912a3.5 3.5 0 104.752.037"/></mask><path d="M21.539 14.249a4.388 4.388 0 00-1.437 3.251h1.795c0-.762.327-1.447.85-1.925L21.54 14.25zM20.102 17.5a4.397 4.397 0 004.398 4.398v-1.795a2.603 2.603 0 01-2.603-2.603h-1.795zm4.398 4.398a4.397 4.397 0 004.397-4.398h-1.795a2.603 2.603 0 01-2.602 2.603v1.794zm4.397-4.398a4.387 4.387 0 00-1.387-3.205l-1.23 1.308c.508.476.822 1.149.822 1.897h1.795z" fill="#D80915" mask="url(#b)"/><rect x="23.334" y="16.333" width="2.333" height="4.667" rx=".897" fill="#D80915"/></g></svg>