<svg width="556" height="575" fill="none" xmlns="http://www.w3.org/2000/svg"><path d="M210.917 548.352c-29.635 10.5-59.558 15.351-91.475 9.287-35.575-6.762-66.431-37.206-83.866-67.566-6.478-11.278-11.635-23.878-10.962-36.863 1.569-29.997 29.907-33.349 53.963-28.498 13.56 2.729 26.011 8.94 38.32 15.091 20.437 10.22 44.41 15.246 62.732 29.411 6.149 4.767 10.766 10.494 17.91 13.962 11.113 5.399 23.798 7.949 35.213 12.862 9.745 4.217 20.638 11.152 20.653 21.766.001 10.886-11.355 17.822-21.333 22.156-7.064 3.087-14.096 5.902-21.155 8.392z" fill="url(#paint0_linear)"/><path d="M101.834 161.426c48.547-71.544 148.934-100.27 230.304-73.371 39.237 12.977 72.121 40 102.45 68.053 26.735 24.724 52.671 51.392 70.929 83.176 12.466 21.696 21.388 47.703 27.689 71.982 9.42 36.354.865 83.195-46.128 79.763-11.027-.804-20.565-4.769-30.877-8.237-8.341-2.812-16.515-1.126-25.176-2.499-21.798-3.452-42.797-11.477-62.655-20.877-40.468-19.175-77.445-45.226-119.063-62.029a288.314 288.314 0 00-107.305-20.917c-15.514-.026-31.827 1.06-45.705-5.877-34.205-17.114-18.823-63.261-6.049-89.221a162.51 162.51 0 0111.586-19.946z" fill="url(#paint1_linear)"/><path d="M482.473 172.225c7.992 7.239 39.394 27 39.999 3.81.143-5.777-2.478-11.387-6.044-15.618-4.08-4.856-8.706-7.403-11.892-13.061a134.003 134.003 0 00-13.255-19.178c-10.057-12.335-21.798-23.733-36.045-28.81-9.992-3.558-26.91-2.663-31.656 10.143-6.915 18.642 22.652 22.058 31.67 28.852 8.557 6.431 13.404 17.48 20.183 26.262a57.79 57.79 0 007.04 7.6z" fill="url(#paint2_linear)"/><path d="M334.678 149.55c16.929 9.967 29.628 24.886 45.063 36.902 25.697 20.001 60.92 24.093 90.389 38.002 30.048 14.192 52.738 36.248 62.996 68.036 13.253 41.031 14.513 89.826 3.253 132.009-12.4 46.432-41.52 77.276-84.097 97.845-42.552 20.557-89.691 30.15-136.706 32.129-4.537.195-9.066.3-13.613.329-102.136.593-238.085-35.358-272.858-145.077a208.681 208.681 0 01-.93-3.022 159.58 159.58 0 01-6.276-37.557c-2.187-45.111 5.709-94.903 21.524-137.192 10.637-28.471 33.543-52.544 57.68-69.697 33.912-24.097 75.29-30.247 116.472-33.139 30.496-2.139 64.794-2.921 93.632 8.744a175.136 175.136 0 0123.471 11.688z" fill="url(#paint3_linear)"/><path d="M405.811 545.069c-130.915 38.066-240.01 1.36-278.193-21.751l-35.456-27.19 12.273-20.392 76.367-6.798 126.823-6.797 102.277 20.392 106.368-35.347h10.909c-16.364 55.467-87.73 88.367-121.368 97.883z" fill="#FB4C47"/><path d="M137.981 492.896h325.584s11.399-187.2-30.08-214.593c-41.474-27.387-235.44-21.667-278.43 1.726-42.99 23.398-17.074 212.867-17.074 212.867z" fill="#FB4C47"/><path d="M192.187 238.86c-.47 0-.945-.152-1.341-.481-.894-.729-21.769-18.301-10.353-53.716 3.994-12.384 7.909-21.152 11.355-28.897 6.217-13.934 10.709-24.01 11.563-45.536.045-1.171 1.216-2.048 2.201-2.042a2.126 2.126 0 012.036 2.206c-.882 22.346-5.759 33.271-11.925 47.103-3.406 7.643-7.27 16.304-11.19 28.467-10.495 32.553 8.203 48.472 9.006 49.134a2.124 2.124 0 01-1.352 3.762zM307.764 27.648c-.548 14.698-12.91 26.16-27.607 25.611-14.692-.549-26.16-12.91-25.611-27.602C255.1 10.96 267.456-.508 282.154.041c14.692.554 26.159 12.91 25.61 27.607z" fill="#000C3E"/><path d="M189.805 228.519s7.813 16.112 39.708 21.775c31.902 5.668 56.936-5.873 81.562 3.06 24.626 8.927 60.205-2.71 67.26-13.057 7.049-10.347 5.572-124.936-13.844-144.154-19.421-19.212-121.162-35.25-143.209-12.768-22.046 22.488-45.462 132.239-31.477 145.144z" fill="#000C3E"/><path d="M373.981 138.113c-1.816 48.426-42.543 86.217-90.97 84.401-48.426-1.816-86.217-42.543-84.401-90.975 1.816-48.426 42.543-86.212 90.969-84.396 48.427 1.81 86.218 42.543 84.402 90.97z" fill="#000C3E"/><path d="M322.287 211.481s5.697 68.334 0 75.926c-5.697 7.593-41.762 1.901-51.25 0-9.493-1.895-13.289-75.926-7.597-75.926 5.697 0 57.755-15.235 58.847 0z" fill="#FFCEB0"/><path d="M214.651 131.538s3.609 106.51 75.616 111.109c72.011 4.594 71.938-145.472 45.88-159.745-26.063-14.273-134.808-11.597-121.496 48.636z" fill="#FFCEB0"/><path d="M288.587 154.337s13.753 32.784 10.212 34.957c-3.536 2.172-13.895 1.782-16.684-.628-2.789-2.41.849-37.995 6.472-34.329z" fill="#EE9B68"/><path d="M267.021 165.31a6.763 6.763 0 01-7.088 6.426 6.767 6.767 0 01-6.427-7.088 6.768 6.768 0 017.089-6.427 6.767 6.767 0 016.426 7.089zm58.087-3.188a6.764 6.764 0 01-7.088 6.427 6.767 6.767 0 01-6.427-7.089 6.768 6.768 0 017.088-6.427 6.767 6.767 0 016.427 7.089z" fill="#41294A"/><path d="M271.35 74.736s-25.82 12.486-30.731 35.924c-4.916 23.444-2.37 83.462-29.729 80.707 0 0-52.969-118.78 60.46-116.63zm13.61.51c-2.342 1.68 26.623 1.607 43.182 21.685 16.565 20.072 20.497 70.247 23.054 71.175 2.562.933 12.791-62.169-5.369-81.126-18.154-18.958-47.539-21.277-60.867-11.734z" fill="#000C3E"/><path d="M264.442 232.933s28.015 15.931 57.105 1.041c0 0 2.263 17.883 0 22.007-2.263 4.124-48.336 7.071-57.405-13.255 0 0-2.319-10.676.3-9.793z" fill="#EE9B68"/><path d="M344.988 172.384s6.897-26.663 18.918-17.176c12.028 9.493 1.149 37.355-10.737 39.884-11.886 2.529-14.749-8.961-8.181-22.708zm-113.571-4.256s-4.882-27.105-17.583-18.539c-12.701 8.559-3.938 37.163 7.728 40.574 11.665 3.406 15.371-7.835 9.855-22.035z" fill="#FFCEB0"/><path d="M315.647 138.027s12.888-6.415 20.502 3.423c6.699 8.644-8.882 1.397-14.709 2.359-5.821.961-13.464.3-5.793-5.782zm-50.643 1.242s-12.91-6.37-20.491 3.496c-6.664 8.667 8.888 1.364 14.715 2.303 5.827.944 13.47.254 5.776-5.799z" fill="#41294A"/><path d="M259.699 150.141c-11.128 0-20.168 8.718-20.587 19.851-.203 5.499 1.743 10.755 5.494 14.789a20.457 20.457 0 0014.341 6.579l.792.017a20.535 20.535 0 0020.581-19.846 20.472 20.472 0 00-5.487-14.794 20.457 20.457 0 00-14.342-6.579l-.792-.017zm.04 44.065l-.9-.017c-6.257-.232-12.05-2.891-16.31-7.479a23.316 23.316 0 01-6.245-16.831 23.367 23.367 0 0123.415-22.567l.9.017c6.257.232 12.05 2.891 16.31 7.479 4.254 4.594 6.477 10.568 6.24 16.836a23.355 23.355 0 01-23.41 22.562zm58.46-47.353c-11.122 0-20.162 8.718-20.581 19.852a20.455 20.455 0 005.488 14.788 20.464 20.464 0 0014.341 6.579l.792.017c11.134 0 20.168-8.718 20.587-19.851a20.457 20.457 0 00-5.488-14.788 20.468 20.468 0 00-14.347-6.58l-.792-.017zm.04 44.065l-.894-.017a23.296 23.296 0 01-16.316-7.479c-4.26-4.594-6.477-10.568-6.24-16.83a23.367 23.367 0 0123.41-22.567l.9.016c6.257.232 12.05 2.891 16.31 7.479 4.26 4.594 6.477 10.568 6.246 16.831a23.368 23.368 0 01-23.416 22.567z" fill="#FFFCF6"/><path d="M238.39 166.647c-.176 0-.351-.034-.521-.102l-8.576-3.383a1.419 1.419 0 01-.798-1.833 1.42 1.42 0 011.838-.797l8.577 3.388a1.41 1.41 0 01.792 1.833 1.404 1.404 0 01-1.312.894zm101.04-3.741a1.412 1.412 0 01-.385-2.772l11.909-3.411c.724-.232 1.533.215 1.748.973a1.416 1.416 0 01-.973 1.748l-11.914 3.406a1.32 1.32 0 01-.385.056z" fill="#FFFCF6"/><path d="M280.086 69.144s3.247 57.732 19.161 62.971c15.914 5.244 55.04 3.807 56.93-2.506 1.889-6.319-30.341-57.133-53.468-65.28-40.557-14.29-75.564 51.651-70.937 67.537 4.628 15.891 39.477 1.986 46.911-.056 7.439-2.043-.085-51.256 1.403-62.666z" fill="#000C3E"/><path opacity=".21" d="M240.459 189.866s36.858-20.118 52.749-16.803c15.886 3.316 43.884 4.436 45.015 10.189 1.137 5.754-35.578 2.303-46.916 3.134-11.343.832-55.085 12.825-50.848 3.48z" fill="#DB5C5D"/><path d="M261.174 177.083c-.855 0-1.664-.52-1.986-1.369a2.126 2.126 0 011.233-2.738c3.293-1.245 4.023-2.257 4.028-2.263.408-1.098 1.567-1.544 2.665-1.126 1.103.402 1.601 1.748 1.194 2.851-.334.906-1.607 2.693-6.382 4.509a2.19 2.19 0 01-.752.136zm55.696-1.53c-1.25 0-3.219-.413-6.229-1.969a2.118 2.118 0 01-.911-2.857 2.124 2.124 0 012.857-.91c3.146 1.623 4.385 1.493 4.379 1.482 1.092-.408 2.189.141 2.619 1.233.43 1.086-.237 2.365-1.323 2.795-.306.119-.753.226-1.392.226z" fill="#EE9B68"/><path d="M281.744 171.757c-.73 0-1.352-.566-1.409-1.301a1.419 1.419 0 011.301-1.522l14.511-1.132c.804-.124 1.466.521 1.522 1.296.062.781-.52 1.46-1.301 1.522l-14.511 1.131c-.04.006-.073.006-.113.006z" fill="#FFFCF6"/><path d="M264.517 53.297a2.11 2.11 0 01-.967-.238c-7.79-4.016-12.429-9.617-13.798-16.643-3.01-15.422 11.003-31.953 11.597-32.649.769-.888 2.11-.996 2.993-.226.888.764.995 2.099.232 2.987-.136.158-13.278 15.688-10.659 29.084 1.115 5.686 5.007 10.285 11.575 13.68a2.115 2.115 0 01.911 2.856 2.111 2.111 0 01-1.884 1.149zm30.714 4.74c-.606 0-1.211-.26-1.63-.763a2.113 2.113 0 01.266-2.982c.159-.136 15.671-13.3 15.286-26.94-.158-5.787-3.247-10.97-9.17-15.393a2.121 2.121 0 01-.43-2.97 2.138 2.138 0 012.97-.43c7.021 5.244 10.681 11.53 10.873 18.686.436 15.704-16.106 29.712-16.808 30.3a2.102 2.102 0 01-1.357.492zm76.041 179.035a2.124 2.124 0 01-1.307-3.797c.73-.571 17.905-14.273 13.413-37.355-1.759-9.034-4.989-19.042-8.406-29.627-5.963-18.466-12.124-37.565-12.231-56.002a2.122 2.122 0 012.11-2.133h.011c1.165 0 2.116.945 2.121 2.111.102 17.781 6.161 36.557 12.022 54.723 3.463 10.709 6.732 20.83 8.537 30.119 5.001 25.696-14.16 40.886-14.975 41.519-.39.3-.843.442-1.295.442z" fill="#000C3E"/><path d="M378.342 140.305a2.12 2.12 0 01-2.104-2.382c2.862-23.325-1.59-42.407-13.238-56.709-18.766-23.059-50.107-25.882-50.424-25.899a2.127 2.127 0 01-1.941-2.291c.097-1.171 1.115-2.02 2.292-1.94 1.352.107 33.468 3.01 53.365 27.449 12.401 15.23 17.164 35.392 14.155 59.911a2.124 2.124 0 01-2.105 1.861z" fill="#000C3E"/><path d="M292.189 222.768c-2.218 0-4.634-.068-6.812-.147a2.84 2.84 0 01-2.715-2.942c.062-1.562 1.437-2.636 2.936-2.716 4.724.187 10.528.215 11.671-.073 1.482-.521 3.049.243 3.575 1.714.532 1.465-.277 3.106-1.742 3.632-1.098.402-3.808.532-6.913.532z" fill="#DB5C5D"/><path d="M224.084 183.537c-.204 0-.413-.029-.617-.096a2.114 2.114 0 01-1.414-2.642c3.864-12.678-5.369-21.097-5.465-21.181a2.12 2.12 0 112.823-3.169c.47.413 11.349 10.342 6.704 25.583a2.122 2.122 0 01-2.031 1.505zm125.797 6.215c-.063 0-.119 0-.187-.006a2.127 2.127 0 01-1.929-2.302c1.403-15.903 9.295-24.287 9.628-24.638a2.128 2.128 0 012.993-.056c.849.803.877 2.144.074 2.992-.074.08-7.202 7.745-8.464 22.075a2.125 2.125 0 01-2.115 1.935z" fill="#EE9B68"/><path d="M232.052 169.884s18.437 15.399 19.886 17.741c1.448 2.343.871 32.321-2.026 31.953-2.896-.362-20.462-28.92-22.386-28.864-1.923.057-1.069 3.14-1.069 3.14s15.06 24.875 24.106 31.89c9.046 7.021 65.517 7.344 77.018.843 11.507-6.506 21.255-30.849 20.378-31.352-.882-.51-3.072-2.495-3.44-1.658-.311.713-15.925 28.535-17.877 27.664-1.957-.871.215-31.76 0-34.679-.215-2.925 22.613-25.068 22.613-25.068l1.646-2.777-2.308-.634s-22.381 22.341-27.987 22.211c-5.606-.131-64.386 4.118-67.107 3.134-2.721-.985-20.909-20.695-23.178-19.886-2.274.804 1.098 4.583 1.731 6.342z" fill="#FFFCF6"/><path d="M224.686 284.324s48.172 57.591 85.323 42.18c37.146-15.41 71.95-57.184 53.275-62.728-18.675-5.538-167.801-2.625-138.598 20.548z" fill="#FFCEB0"/><path d="M436.202 250.202s-6.529-50.836-8.718-54.129c-2.189-3.292-18.748 21.707-14.279 35.879 4.475 14.172-57.411 14.522-52.585 35.222 4.826 20.695 1.867 48.665 27.534 50.096 25.662 1.437 54.95-5.527 60.952-15.06 6.008-9.527-12.904-52.008-12.904-52.008z" fill="url(#paint4_linear)"/><path d="M474.775 295.98s71.562 83.595 57.599 138.575c-13.963 54.981-82.037 63.88-96 56.762-13.963-7.118-8.729-242.969 38.401-195.337zM143.66 285.523s-86.811 93.244-81.177 176.474c4.65 68.714 110.12 58.259 123.098 51.77 12.983-6.489 1.883-271.67-41.921-228.244z" fill="#D9423D"/><path d="M441.156 262.288s87.14 172.361 63.204 201.869c-23.937 29.509-66.485 32.881-83.463 8.407-9.917-14.285 3.932-140.505-10.709-155.978-14.641-15.472 26.323-62.417 30.968-54.298zM307.09 439.982s59.249 22.352 68.725 41.19c9.476 18.839-25.684-4.135-33.961-7.552-8.271-3.411 21.549 20.338 22.454 25.831.899 5.488-33.18-16.191-33.18-16.191s23.676 25.045 21.345 30.267c-2.331 5.227-29.407-16.271-29.407-16.271s14.047 22.245 9.442 25.401c-4.605 3.157-35.183-33.734-60.392-32.224-25.209 1.517-120.67 56.89-156.984 1.256-36.32-55.634-5.675-82.115 64.651-81.34 70.326.78 107.778 21.441 127.307 29.633z" fill="#FFCEB0"/><path d="M289.343 9.208c-.633 0-1.32.073-2.065.22-1.816.365-2.993 1.247-3.7 2.779-3.149 6.817 3.492 23.053 8.237 32.646 2.932-10.642 6.446-28.429 1.48-34.034-.956-1.077-2.257-1.611-3.952-1.611zm3.025 43.65c-.79 0-1.528-.424-1.919-1.128-1.678-3.008-16.233-29.73-10.861-41.365 1.292-2.798 3.655-4.614 6.83-5.247 5.41-1.077 8.517.921 10.167 2.785 8.627 9.74-1 40.026-2.126 43.447a2.2 2.2 0 01-2.091 1.509z" fill="#FFD310"/><path d="M318.974 20.02a4.2 4.2 0 00-.63.045c-7.427.988-16.403 16.742-21.148 26.708 9.865-4.153 25.509-12.086 27.588-19.3.467-1.624.153-3.06-.982-4.524-1.528-1.966-3.111-2.929-4.828-2.929zm-25.995 32.978a2.2 2.2 0 01-2.03-3.044c1.387-3.322 13.915-32.527 26.813-34.247 2.472-.33 6.127.189 9.509 4.543 1.989 2.558 2.59 5.478 1.737 8.439-3.55 12.313-32.042 22.999-35.278 24.178-.246.09-.498.132-.751.132z" fill="#FFD310"/><path d="M251.713 45.234c10.677 6.864 35.082 12.203 54.148 0" stroke="#FFD310" stroke-width="3.87"/><defs><linearGradient id="paint0_linear" x1="41" y1="428.022" x2="129.957" y2="582.82" gradientUnits="userSpaceOnUse"><stop stop-color="#FFC5C6"/><stop offset="1" stop-color="#FFF6F6"/></linearGradient><linearGradient id="paint1_linear" x1="540" y1="252.022" x2="181.277" y2="18.717" gradientUnits="userSpaceOnUse"><stop stop-color="#fff"/><stop offset="1" stop-color="#FFD7D7"/></linearGradient><linearGradient id="paint2_linear" x1="523.287" y1="175.628" x2="405.22" y2="125.199" gradientUnits="userSpaceOnUse"><stop stop-color="#FFBEBF"/><stop offset="1" stop-color="#FFFBFC"/></linearGradient><linearGradient id="paint3_linear" x1="555" y1="429.022" x2="43" y2="225.022" gradientUnits="userSpaceOnUse"><stop stop-color="#FFD7D7"/><stop offset="1" stop-color="#FFF8F8"/></linearGradient><linearGradient id="paint4_linear" x1="450" y1="329" x2="405.318" y2="195.778" gradientUnits="userSpaceOnUse"><stop stop-color="#FFC4A0"/><stop offset="1" stop-color="#FFCEB0"/></linearGradient></defs></svg>