<svg width="49" height="35" fill="none" xmlns="http://www.w3.org/2000/svg"><rect width="49" height="35" rx="2.649" fill="#fff"/><mask id="a" maskUnits="userSpaceOnUse" x="0" y="0" width="49" height="35"><rect width="49" height="35" rx="2.649" fill="#fff"/></mask><g mask="url(#a)"><path fill-rule="evenodd" clip-rule="evenodd" d="M0 9.333h49V0H0v9.333zM0 35h49v-9.334H0V35z" fill="#DD172C"/><path fill-rule="evenodd" clip-rule="evenodd" d="M0 25.666h49V9.333H0v16.333z" fill="#FFD133"/><path fill-rule="evenodd" clip-rule="evenodd" d="M12.835 16.333h2.333V17.5h-2.333v-1.167z" fill="#FFEDB1"/><path d="M10.437 16.087a.441.441 0 01.44-.479h3.914c.258 0 .461.221.44.479l-.37 4.424a1.324 1.324 0 01-1.319 1.215h-1.417a1.324 1.324 0 01-1.32-1.215l-.368-4.424z" stroke="#A41517" stroke-width=".883"/><path fill-rule="evenodd" clip-rule="evenodd" d="M10.499 17.5h4.667v1.167h-1.167L12.832 21l-1.166-2.333h-1.167V17.5z" fill="#A41517"/><rect x="6.999" y="14" width="2.333" height="8.167" rx=".883" fill="#A41517"/><rect x="16.334" y="14" width="2.333" height="8.167" rx=".883" fill="#A41517"/><path d="M10.499 13.432c0-.975.79-1.765 1.766-1.765H13.4c.975 0 1.766.79 1.766 1.765v.127a.442.442 0 01-.442.441H10.94a.441.441 0 01-.441-.441v-.127z" fill="#A41517"/></g></svg>