<svg width="20" height="16" fill="none" xmlns="http://www.w3.org/2000/svg"><path d="M19.892 2.152a7.95 7.95 0 01-2.283.614A3.955 3.955 0 0019.352.58a7.807 7.807 0 01-2.517.958A3.956 3.956 0 0013.938.286 3.964 3.964 0 009.973 4.25c0 .307.036.614.098.909a11.271 11.271 0 01-8.177-4.15 3.936 3.936 0 00-.54 2.001c0 1.375.7 2.59 1.768 3.303A3.994 3.994 0 011.33 5.81v.05a3.966 3.966 0 003.18 3.89 4.192 4.192 0 01-1.044.135 4.97 4.97 0 01-.749-.061 3.972 3.972 0 003.708 2.75 7.941 7.941 0 01-4.923 1.694c-.332 0-.639-.012-.958-.05A11.206 11.206 0 006.634 16c7.292 0 11.282-6.04 11.282-11.282 0-.172 0-.344-.013-.516a8.524 8.524 0 001.99-2.05z" fill="#035755"/></svg>