<svg width="49" height="35" fill="none" xmlns="http://www.w3.org/2000/svg"><rect width="49" height="35" rx="2.692" fill="#fff"/><mask id="a" maskUnits="userSpaceOnUse" x="0" y="0" width="49" height="35"><rect width="49" height="35" rx="2.692" fill="#fff"/></mask><g mask="url(#a)"><path fill-rule="evenodd" clip-rule="evenodd" d="M49 0H0v2.333h49V0zm0 4.667H0V7h49V4.667zM0 9.333h49v2.333H0V9.333zM49 14H0v2.333h49V14zM0 18.667h49V21H0v-2.333zm49 4.667H0v2.333h49v-2.333zM0 28h49v2.333H0V28zm49 4.667H0V35h49v-2.333z" fill="#D02F44"/><path fill="#46467F" d="M0 0h21v16.333H0z"/><g filter="url(#filter0_d)"><path fill-rule="evenodd" clip-rule="evenodd" d="M9.332 3.5A1.167 1.167 0 117 3.5a1.167 1.167 0 012.333 0zm-4.666 0a1.167 1.167 0 11-2.333 0 1.167 1.167 0 012.333 0zm8.166 1.167a1.167 1.167 0 100-2.334 1.167 1.167 0 000 2.334zM18.666 3.5a1.167 1.167 0 11-2.333 0 1.167 1.167 0 012.333 0zM5.831 7a1.167 1.167 0 100-2.333A1.167 1.167 0 005.83 7zm5.833-1.166a1.167 1.167 0 11-2.333 0 1.167 1.167 0 012.333 0zM15.164 7a1.167 1.167 0 100-2.333 1.167 1.167 0 000 2.333zm3.502 1.167a1.167 1.167 0 11-2.333 0 1.167 1.167 0 012.333 0zm-5.834 1.167a1.167 1.167 0 100-2.334 1.167 1.167 0 000 2.334zm-3.5-1.167a1.167 1.167 0 11-2.333 0 1.167 1.167 0 012.333 0zM3.5 9.334A1.167 1.167 0 103.5 7a1.167 1.167 0 000 2.334zM6.998 10.5a1.167 1.167 0 11-2.334 0 1.167 1.167 0 012.334 0zm3.5 1.167a1.167 1.167 0 100-2.333 1.167 1.167 0 000 2.333zM16.33 10.5a1.167 1.167 0 11-2.333 0 1.167 1.167 0 012.333 0zM17.5 14a1.167 1.167 0 100-2.334 1.167 1.167 0 000 2.334zM14 12.833a1.167 1.167 0 11-2.333 0 1.167 1.167 0 012.333 0zM8.166 14a1.167 1.167 0 100-2.334 1.167 1.167 0 000 2.334zm-3.5-1.167a1.167 1.167 0 11-2.334 0 1.167 1.167 0 012.333 0z" fill="url(#paint0_linear)"/></g></g><defs><linearGradient id="paint0_linear" x1="2.332" y1="2.333" x2="2.332" y2="14" gradientUnits="userSpaceOnUse"><stop stop-color="#fff"/><stop offset="1" stop-color="#F0F0F0"/></linearGradient><filter id="filter0_d" x="2.332" y="2.333" width="16.334" height="13.012" filterUnits="userSpaceOnUse" color-interpolation-filters="sRGB"><feFlood flood-opacity="0" result="BackgroundImageFix"/><feColorMatrix in="SourceAlpha" values="0 0 0 0 0 0 0 0 0 0 0 0 0 0 0 0 0 0 127 0"/><feOffset dy="1.346"/><feColorMatrix values="0 0 0 0 0 0 0 0 0 0 0 0 0 0 0 0 0 0 0.06 0"/><feBlend in2="BackgroundImageFix" result="effect1_dropShadow"/><feBlend in="SourceGraphic" in2="effect1_dropShadow" result="shape"/></filter></defs></svg>