<svg width="21" height="18" fill="none" xmlns="http://www.w3.org/2000/svg"><path d="M20.113 4.502C20.236 1.9 19.266.562 17.216.5 14.44.414 12.563 1.973 11.58 5.19c.515-.209 1.006-.32 1.485-.32 1.007 0 1.449.565 1.338 1.707-.061.688-.503 1.694-1.338 3.02-.847 1.326-1.473 1.977-1.89 1.977-.54 0-1.02-1.02-1.474-3.057-.147-.59-.43-2.124-.81-4.58C8.524 1.667 7.58.61 6.02.757c-.663.062-1.657.64-2.958 1.793-.97.847-1.94 1.731-2.922 2.603l.945 1.203c.896-.626 1.412-.933 1.56-.933.687 0 1.337 1.068 1.927 3.217.54 1.976 1.08 3.953 1.62 5.917.798 2.148 1.78 3.229 2.947 3.229 1.89 0 4.174-1.768 6.9-5.292 2.626-3.388 3.99-6.052 4.075-7.992z" fill="#035755"/></svg>