<svg width="565" height="585" fill="none" xmlns="http://www.w3.org/2000/svg"><path d="M214.42 557.802c-30.127 10.675-60.547 15.607-92.994 9.442-36.166-6.874-67.535-37.824-85.26-68.689-6.585-11.465-11.828-24.275-11.143-37.475 1.594-30.496 30.404-33.904 54.859-28.971 13.785 2.774 26.443 9.088 38.957 15.341 20.777 10.39 45.148 15.499 63.774 29.9 6.251 4.846 10.945 10.668 18.207 14.194 11.298 5.489 24.194 8.08 35.798 13.076 9.908 4.286 20.982 11.337 20.997 22.127.001 11.066-11.544 18.118-21.688 22.524-7.181 3.138-14.329 6-21.507 8.531z" fill="url(#paint0_linear)"/><path d="M103.525 164.448c49.354-72.733 151.408-101.937 234.13-74.59 39.889 13.193 73.319 40.665 104.153 69.183 27.179 25.135 53.546 52.246 72.107 84.559 12.673 22.056 21.744 48.495 28.149 73.177 9.577 36.958.88 84.578-46.895 81.089-11.209-.818-20.906-4.848-31.389-8.375-8.48-2.858-16.79-1.144-25.594-2.54-22.16-3.509-43.509-11.668-63.696-21.224-41.141-19.493-78.732-45.977-121.042-63.059a293.086 293.086 0 00-109.087-21.265c-15.772-.026-32.356 1.078-46.465-5.974-34.774-17.399-19.136-64.313-6.15-90.704a165.165 165.165 0 0111.779-20.277z" fill="url(#paint1_linear)"/><path d="M490.489 175.426c8.125 7.359 40.049 27.449 40.663 3.874.145-5.874-2.518-11.576-6.144-15.878-4.148-4.937-8.85-7.526-12.089-13.278a136.318 136.318 0 00-13.476-19.497c-10.224-12.54-22.16-24.127-36.643-29.289-10.159-3.617-27.357-2.707-32.183 10.312-7.03 18.952 23.029 22.425 32.196 29.332 8.7 6.537 13.627 17.771 20.519 26.698a58.728 58.728 0 007.157 7.726z" fill="url(#paint2_linear)"/><path d="M340.238 152.375c17.21 10.132 30.121 25.299 45.812 37.514 26.124 20.334 61.932 24.494 91.89 38.635 30.548 14.427 53.614 36.849 64.044 69.166 13.473 41.712 14.753 91.318 3.306 134.202-12.606 47.204-42.21 78.56-85.494 99.47-43.259 20.899-91.181 30.651-138.977 32.663-4.612.198-9.217.305-13.84.335-103.832.603-242.04-35.945-277.39-147.488a214.222 214.222 0 01-.947-3.071 162.257 162.257 0 01-6.379-38.182c-2.224-45.86 5.803-96.479 21.881-139.471 10.815-28.944 34.101-53.417 58.639-70.855 34.475-24.498 76.54-30.75 118.407-33.689 31.002-2.176 65.87-2.97 95.187 8.888a177.913 177.913 0 0123.861 11.883z" fill="url(#paint3_linear)"/><path d="M412.553 554.465c-133.09 38.698-243.998 1.382-282.815-22.113L93.693 504.71l12.477-20.731 77.635-6.91 128.931-6.91 103.976 20.731 108.135-35.934h11.091c-16.636 56.388-89.189 89.834-123.385 99.509z" fill="#FB4C47"/><path d="M138.119 479.7h316.88s11.095-182.195-29.276-208.856c-40.365-26.655-229.146-21.088-270.987 1.679-41.84 22.774-16.617 207.177-16.617 207.177z" fill="#FB4C47"/><path d="M190.878 232.455c-.463 0-.925-.149-1.305-.468-.876-.71-21.193-17.812-10.071-52.28 3.882-12.053 7.687-20.587 11.045-28.125 6.051-13.567 10.423-23.368 11.249-44.318.05-1.14.936-1.994 2.148-1.988a2.07 2.07 0 011.982 2.147c-.865 21.749-5.6 32.381-11.602 45.838-3.32 7.444-7.075 15.874-10.902 27.712-10.257 31.814 8.568 47.666 8.761 47.821a2.056 2.056 0 01.291 2.901 2.054 2.054 0 01-1.596.76zM303.359 26.888c-.534 14.305-12.565 25.46-26.87 24.926-14.299-.534-25.46-12.565-24.926-26.864.54-14.305 12.565-25.466 26.87-24.932 14.299.54 25.46 12.565 24.926 26.87z" fill="#000C3E"/><path d="M188.556 222.389s7.604 15.681 38.647 21.193c31.049 5.517 55.413-5.716 79.381 2.978 23.968 8.689 58.596-2.637 65.462-12.708 6.861-10.07 5.423-121.596-13.473-140.3-18.903-18.699-117.924-34.308-139.381-12.427-21.457 21.887-44.247 128.704-30.636 141.264z" fill="#000C3E"/><path d="M367.807 134.4c-1.767 47.132-41.405 83.912-88.537 82.145-47.132-1.767-83.913-41.406-82.145-88.543 1.767-47.132 41.405-83.907 88.537-82.14 47.132 1.762 83.913 41.406 82.145 88.538z" fill="#000C3E"/><path d="M317.497 205.807s5.544 66.508 0 73.897c-5.545 7.389-40.646 1.85-49.88 0-9.239-1.845-12.934-73.897-7.395-73.897 5.545 0 56.212-14.828 57.275 0z" fill="#FFCEB0"/><path d="M212.738 128s3.513 103.663 73.594 108.139c70.087 4.471 70.016-141.583 44.655-155.475C305.62 66.772 199.782 69.377 212.738 128z" fill="#FFCEB0"/><path d="M284.697 150.19s13.385 31.908 9.939 34.022c-3.442 2.114-13.523 1.734-16.238-.611-2.714-2.346.826-36.979 6.299-33.411z" fill="#EE9B68"/><path d="M263.709 171.497a6.583 6.583 0 01-6.899 6.255 6.587 6.587 0 01-6.255-6.899 6.585 6.585 0 0113.154.644zm56.535-3.101a6.583 6.583 0 01-6.899 6.255 6.586 6.586 0 01-6.255-6.899 6.586 6.586 0 016.899-6.255 6.586 6.586 0 016.255 6.899z" fill="#41294A"/><path d="M267.922 72.716s-25.13 12.152-29.909 34.964c-4.785 22.817-2.307 81.231-28.935 78.549 0 0-51.553-115.605 58.844-113.513zm13.245.497c-2.28 1.636 25.911 1.564 42.028 21.105 16.121 19.536 19.948 68.369 22.437 69.272 2.494.908 12.449-60.506-5.225-78.957-17.669-18.451-46.268-20.708-59.24-11.42z" fill="#000C3E"/><path d="M261.198 226.685s27.266 15.506 55.578 1.014c0 0 2.202 17.404 0 21.418-2.203 4.014-47.044 6.883-55.87-12.901 0 0-2.258-10.389.292-9.531z" fill="#EE9B68"/><path d="M339.59 167.755s6.712-25.95 18.412-16.716c11.706 9.239 1.118 36.357-10.45 38.818-11.568 2.461-14.354-8.722-7.962-22.102zm-110.537-4.142s-4.752-26.38-17.113-18.044c-12.361 8.331-3.832 36.17 7.521 39.49 11.354 3.314 14.96-7.626 9.592-21.446z" fill="#FFCEB0"/><path d="M311.035 134.317s12.543-6.244 19.954 3.331c6.519 8.413-8.644 1.36-14.316 2.296-5.665.936-13.104.292-5.638-5.627zm-49.292 1.208s-12.564-6.2-19.943 3.402c-6.486 8.436 8.65 1.327 14.322 2.241 5.671.92 13.11.248 5.621-5.643z" fill="#41294A"/><path d="M256.578 146.103c-10.825 0-19.623 8.485-20.036 19.321a19.962 19.962 0 005.346 14.399 19.926 19.926 0 0013.958 6.398l.771.016a19.996 19.996 0 0020.037-19.315 19.924 19.924 0 00-5.341-14.398 19.92 19.92 0 00-13.964-6.404l-.771-.017zm.039 42.887l-.876-.016c-6.089-.226-11.727-2.814-15.874-7.279a22.693 22.693 0 01-6.078-16.381 22.75 22.75 0 0122.789-21.964l.876.017c6.09.226 11.728 2.814 15.874 7.279 4.146 4.476 6.304 10.285 6.079 16.386a22.738 22.738 0 01-22.79 21.958zm56.905-46.084c-10.824 0-19.623 8.485-20.036 19.321-.413 11.056 8.248 20.389 19.304 20.796l.771.017c10.825 0 19.624-8.485 20.037-19.321a19.96 19.96 0 00-5.347-14.398 19.924 19.924 0 00-13.958-6.398l-.771-.017zm.039 42.887l-.875-.017c-12.576-.468-22.421-11.083-21.953-23.659a22.75 22.75 0 0122.789-21.964l.876.016c6.09.226 11.728 2.814 15.874 7.279a22.698 22.698 0 016.079 16.381 22.75 22.75 0 01-22.79 21.964z" fill="#FFFCF6"/><path d="M235.84 162.172a1.38 1.38 0 01-.506-.099l-8.342-3.293a1.373 1.373 0 01-.776-1.784 1.373 1.373 0 011.784-.776l8.347 3.298a1.369 1.369 0 01.771 1.784c-.215.54-.727.87-1.278.87zm98.343-3.642a1.374 1.374 0 01-1.322-1.002 1.373 1.373 0 01.947-1.696l11.596-3.32a1.372 1.372 0 011.701.947 1.375 1.375 0 01-.947 1.702l-11.601 3.314a1.242 1.242 0 01-.374.055z" fill="#FFFCF6"/><path d="M276.423 67.275s3.161 56.189 18.649 61.288c15.489 5.104 53.569 3.706 55.408-2.439 1.839-6.15-29.529-55.606-52.038-63.535-39.473-13.908-73.545 50.271-69.041 65.732 4.504 15.466 38.422 1.932 45.657-.055 7.24-1.988-.083-49.885 1.365-60.991z" fill="#000C3E"/><path d="M278.038 167.145a1.376 1.376 0 01-.11-2.747l14.129-1.101c.826-.133 1.426.512 1.475 1.26a1.373 1.373 0 01-1.261 1.482l-14.123 1.101c-.038.005-.077.005-.11.005z" fill="#FFFCF6"/><path d="M261.274 51.851c-.324 0-.644-.077-.947-.231-7.576-3.91-12.096-9.36-13.429-16.199-2.924-15.01 10.709-31.098 11.293-31.776a2.047 2.047 0 012.913-.22 2.06 2.06 0 01.22 2.907c-.132.155-12.917 15.269-10.368 28.307 1.079 5.534 4.873 10.01 11.265 13.314a2.063 2.063 0 01.887 2.78 2.055 2.055 0 01-1.834 1.118z" fill="#000C3E"/><path d="M291.159 56.464a2.059 2.059 0 01-1.581-.743 2.056 2.056 0 01.259-2.902c.149-.132 15.252-12.945 14.878-26.225-.155-5.633-3.161-10.671-8.926-14.977a2.065 2.065 0 112.472-3.31c6.828 5.105 10.396 11.222 10.583 18.188.419 15.284-15.676 28.917-16.364 29.49-.385.325-.853.48-1.321.48z" fill="#41294A"/><path d="M365.168 230.712a2.071 2.071 0 01-1.636-.798 2.061 2.061 0 01.364-2.896c.71-.556 17.427-13.892 13.055-36.357-1.713-8.798-4.851-18.539-8.182-28.852-5.798-17.966-11.794-36.549-11.899-54.488a2.065 2.065 0 012.054-2.075h.011c1.134 0 2.059.919 2.065 2.053.099 17.3 5.996 35.575 11.695 53.244 3.369 10.434 6.552 20.284 8.308 29.331 4.868 25.008-13.781 39.792-14.574 40.409-.38.292-.821.429-1.261.429z" fill="#000C3E"/><path d="M372.051 136.534a2.064 2.064 0 01-2.048-2.318c2.786-22.685-1.536-41.246-12.857-55.166-18.236-22.426-48.794-25.218-49.103-25.234a2.079 2.079 0 01-1.888-2.236c.099-1.128 1.117-1.982 2.23-1.883 1.321.105 32.574 2.93 51.938 26.716 12.07 14.822 16.706 34.446 13.777 58.309a2.068 2.068 0 01-2.049 1.812z" fill="#000C3E"/><path d="M288.245 216.102c-2.324 0-4.791-.077-6.641-.143a2.071 2.071 0 01-1.982-2.147c.039-1.14.914-2.06 2.142-1.983 4.752.188 10.511.21 11.557-.093 1.074-.303 2.236.275 2.583 1.338.341 1.057-.166 2.18-1.206 2.555-1.002.358-3.618.473-6.453.473zm-66.324-37.493c-.199 0-.402-.028-.601-.094a2.05 2.05 0 01-1.371-2.571c3.755-12.339-5.236-20.532-5.324-20.615a2.07 2.07 0 01-.165-2.918 2.06 2.06 0 012.918-.165c.451.402 11.04 10.065 6.514 24.898a2.054 2.054 0 01-1.971 1.465zm122.433 6.05c-.061 0-.116 0-.182-.005a2.072 2.072 0 01-1.878-2.241c1.36-15.478 9.041-23.638 9.366-23.979a2.07 2.07 0 012.913-.055c.826.782.853 2.087.071 2.913-.071.077-7.009 7.537-8.231 21.484a2.073 2.073 0 01-2.059 1.883z" fill="#EE9B68"/><path d="M224.043 276.78s46.884 56.052 83.043 41.054c36.152-14.999 70.026-55.656 51.85-61.052-18.175-5.39-163.315-2.554-134.893 19.998z" fill="#FFCEB0"/><path d="M347.872 350.85s-27.321-24.535-55.887-10.665c-28.565 13.864-19.871 42.667-45.953 37.331-26.083-5.335-73.341 2.726-62.098 30.933 11.243 28.208-60.677 50.276-33.356 86.545 27.321 36.263 101.064 8.386 123.722 15.857 22.652 7.467 76.055 10.666 82.266-10.67 6.211-21.331 45.954-24.53 39.743-52.264-6.211-27.734-12.422-66.133-48.437-97.067z" fill="#fff"/><path d="M257.621 415.381s27.894 33.494 27.822 65.732c-.044 20.526-15.152-14.068-20.339-21.072-5.181-6.998 11.172 23.153 5.754 32.805-2.649 4.724-19.536-30.151-19.536-30.151s7.169 32.767 2.599 35.949c-4.564 3.188-16.347-28.323-16.347-28.323s.55 25.598-4.879 25.917c-5.423.319-3.474-25.989-25.251-37.381-21.782-11.392-120.995 67.455-123.352 2.836-2.357-64.619 26.754-87.007 94.187-75.274 53.216 9.262 61.613 15.131 79.342 28.962zm62.037 0s-27.894 33.494-27.823 65.732c.044 20.526 15.153-14.068 20.34-21.072 5.181-6.998-11.172 23.153-5.754 32.805 2.648 4.724 19.535-30.151 19.535-30.151s-7.168 32.767-2.598 35.949c4.564 3.188 16.347-28.323 16.347-28.323s-.55 25.598 4.879 25.917c5.423.319 3.474-25.989 25.25-37.381 21.782-11.392 133.583 75.202 135.94 10.583 2.351-64.619-39.341-94.754-106.774-83.021-53.216 9.262-61.613 15.131-79.342 28.962z" fill="#FFC6A6"/><path d="M350.706 471.703s.595-56.69 31.578-56.322c30.982.375 45.711 28.065 16.551 44.396-29.16 16.336-48.949 22.993-48.129 11.926z" fill="#fff"/><path d="M374.084 436.401s4.95 11.524 16.639 12.681c11.684 1.156 38.251 0 40.564 16.749 2.307 16.75-11.58 39.848-28.604 37.541-17.02-2.313-34.496-5.787-48.85 3.832-14.355 9.619.011-77.707 20.251-70.803zm29.48-89.821c0 7.654-6.206 13.859-13.859 13.859-7.659 0-13.864-6.205-13.864-13.859 0-7.653 6.205-13.858 13.864-13.858 7.653 0 13.859 6.205 13.859 13.858zm-160.705 0c0 7.654-6.206 13.859-13.859 13.859-7.659 0-13.864-6.205-13.864-13.859 0-7.653 6.205-13.858 13.864-13.858 7.653 0 13.859 6.205 13.859 13.858z" fill="#fff"/><path d="M286.959 202.745c-10.582 0-19.893-7.317-20.323-7.67a2.054 2.054 0 01-.33-2.896 2.063 2.063 0 012.896-.33c.11.082 10.577 8.27 20.764 6.513 4.911-.864 9.046-3.975 12.295-9.25.6-.974 1.883-1.283 2.841-.677.974.6 1.272 1.872.677 2.841-3.898 6.332-8.986 10.087-15.12 11.155a21.672 21.672 0 01-3.7.314z" fill="#EE9B68"/><path d="M203.278 261.038s-39.154 55.155-40.296 87.568c-1.142 32.413-36.184 46.083-26.253 92.783 3.916 18.389 14.918 44.45 4.369 54.732-27.482 26.787-54.012 7.375-58.59 0-33.105-53.355 6.975-179.509 41.85-207.581 26.307-27.502 78.92-27.502 78.92-27.502zm181.753-2.39s43.536 55.908 44.736 87.358c1.2 31.45 38.024 44.714 27.588 90.027-4.115 17.843-23.262 43.978-3.313 53.107 23.613 10.803 61.298 3.856 66.109-3.3 47.83-55.004-15.964-166.474-52.613-193.711-32.285-26.307-82.507-33.481-82.507-33.481z" fill="#D9423D"/><path d="M288.116 8.717c-.644 0-1.343.075-2.1.224-1.846.37-3.043 1.268-3.761 2.825-3.202 6.93 3.55 23.436 8.373 33.188 2.981-10.818 6.554-28.9 1.505-34.599-.971-1.095-2.294-1.638-4.017-1.638zm3.075 44.376a2.231 2.231 0 01-1.951-1.147c-1.706-3.059-16.503-30.224-11.042-42.053 1.314-2.844 3.716-4.69 6.944-5.334 5.499-1.095 8.659.936 10.336 2.832 8.77 9.9-1.017 40.69-2.161 44.168a2.24 2.24 0 01-2.126 1.534z" fill="#FFD310"/><path d="M318.24 19.708c-.211 0-.426.013-.64.046-7.551 1.004-16.676 17.02-21.499 27.151 10.028-4.222 25.933-12.287 28.045-19.62.475-1.651.156-3.11-.998-4.6-1.553-1.998-3.162-2.977-4.908-2.977zm-26.427 33.526a2.236 2.236 0 01-2.064-3.095c1.411-3.377 14.146-33.067 27.259-34.816 2.513-.335 6.228.192 9.667 4.62 2.022 2.6 2.633 5.567 1.765 8.577-3.608 12.518-32.573 23.381-35.863 24.58-.25.092-.507.134-.764.134z" fill="#FFD310"/><path d="M249.861 45.342c10.854 6.977 35.664 12.405 55.047 0" stroke="#FFD310" stroke-width="3.87"/><defs><linearGradient id="paint0_linear" x1="22.349" y1="465.289" x2="53.607" y2="573.824" gradientUnits="userSpaceOnUse"><stop stop-color="#FFCECE"/><stop offset="1" stop-color="#FFF2F2"/></linearGradient><linearGradient id="paint1_linear" x1="84.499" y1="97.5" x2="494.884" y2="408.938" gradientUnits="userSpaceOnUse"><stop stop-color="#FFDADA"/><stop offset="1" stop-color="#fff"/></linearGradient><linearGradient id="paint2_linear" x1="531.981" y1="178.886" x2="411.952" y2="127.619" gradientUnits="userSpaceOnUse"><stop stop-color="#FFDFDF"/><stop offset="1" stop-color="#FFF5F5"/></linearGradient><linearGradient id="paint3_linear" x1="504.888" y1="516.965" x2="22.361" y2="237.536" gradientUnits="userSpaceOnUse"><stop stop-color="#FFE0E0"/><stop offset="1" stop-color="#FFF4F4"/></linearGradient></defs></svg>