<svg width="23" height="16" fill="none" xmlns="http://www.w3.org/2000/svg"><path d="M9.581 10.991V4.816l5.942 3.106-5.942 3.07zM11.852.408C7.224.408 4.155.63 4.155.63c-.43.05-1.375.05-2.21.933 0 0-.675.663-.872 2.186-.233 1.78-.22 3.56-.22 3.56v1.67s-.013 1.78.22 3.56c.197 1.51.872 2.185.872 2.185.835.872 1.94.847 2.43.933 0 0 1.756.172 7.477.221 4.629 0 7.698-.233 7.698-.233.43-.05 1.375-.05 2.21-.92 0 0 .675-.676.871-2.186.234-1.78.221-3.56.221-3.56v-1.67s.013-1.78-.22-3.56c-.197-1.523-.872-2.186-.872-2.186C20.925.68 19.98.68 19.55.63c0 0-3.07-.22-7.698-.22z" fill="#F44A45"/></svg>